PathFileType	4	(X/Y/Z)	/Users/itak/Documents/Research/Walk-IL/dataset/trc/00561_00009.trc
DataRate	CameraRate	NumFrames	NumMarkers	Units	OrigDataRate	OrigDataStartFrame	OrigNumFrames
100.000000	100.000000	4	53	mm	100.000000	157	420
Frame#	Time	RPSI			LPSI			L3			STRN			T10			C7			CLAV			RBAK			LBAK			LSHO			LUPA			LAEL			LAOL			LWTS			LWPS			LFRA			LHPS			LHTS			RSHO			RUPA			RAEL			RAOL			RWTS			RWPS			RFRA			RIFD			RHTS			RHPS			RBHD			LFHD			RFHD			LBHD			LHIP			RHIP			RASI			LASI			LKNE			LTHI			LANK			LTIP			LTOE			LMT1			LMT5			LHEE			RKNE			RTHI			RANK			RTIP			RTOE			RMT1			RMT5			RHEE			LIFD			
		X1	Y1	Z1	X2	Y2	Z2	X3	Y3	Z3	X4	Y4	Z4	X5	Y5	Z5	X6	Y6	Z6	X7	Y7	Z7	X8	Y8	Z8	X9	Y9	Z9	X10	Y10	Z10	X11	Y11	Z11	X12	Y12	Z12	X13	Y13	Z13	X14	Y14	Z14	X15	Y15	Z15	X16	Y16	Z16	X17	Y17	Z17	X18	Y18	Z18	X19	Y19	Z19	X20	Y20	Z20	X21	Y21	Z21	X22	Y22	Z22	X23	Y23	Z23	X24	Y24	Z24	X25	Y25	Z25	X26	Y26	Z26	X27	Y27	Z27	X28	Y28	Z28	X29	Y29	Z29	X30	Y30	Z30	X31	Y31	Z31	X32	Y32	Z32	X33	Y33	Z33	X34	Y34	Z34	X35	Y35	Z35	X36	Y36	Z36	X37	Y37	Z37	X38	Y38	Z38	X39	Y39	Z39	X40	Y40	Z40	X41	Y41	Z41	X42	Y42	Z42	X43	Y43	Z43	X44	Y44	Z44	X45	Y45	Z45	X46	Y46	Z46	X47	Y47	Z47	X48	Y48	Z48	X49	Y49	Z49	X50	Y50	Z50	X51	Y51	Z51	X52	Y52	Z52	X53	Y53	Z53	

158	1.57	-1539.649291992188	999.1378173828125	-440.8149108886719	-1483.132080078125	1007.270935058594	-562.4892578125	-1492.39892578125	1105.09521484375	-498.6983947753906	-1232.242797851562	1250.996337890625	-417.9254150390625	-1474.587768554688	1230.065673828125	-499.2351989746094	-1375.9912109375	1489.805908203125	-470.2555236816406	-1227.548950195312	1362.243774414062	-423.2021789550781	-1493.44970703125	1388.256591796875	-410.9415588378906	-1387.7958984375	1438.297119140625	-568.0782470703125	-1266.099365234375	1443.838012695312	-612.085693359375	-1261.918579101562	1321.729125976562	-695.8604125976562	-1241.5556640625	1101.39794921875	-723.2210083007812	-1341.925415039062	1092.603149414062	-709.075439453125	-1161.596435546875	870.8297729492188	-628.0337524414062	-1171.493774414062	840.8197021484375	-709.9379272460938	-1213.090454101562	1016.715148925781	-717.3256225585938	-1157.33642578125	783.7075805664062	-695.48095703125	-1126.356811523438	798.7985229492188	-636.2205200195312	-1374.734497070312	1454.534790039062	-303.7872009277344	-1424.5712890625	1397.999389648438	-245.9969940185547	-1487.104614257812	1115.186767578125	-207.1376953125	-1538.844970703125	1104.231567382812	-242.8513641357422	-1361.9365234375	890.0606079101562	-233.3635101318359	-1420.709838867188	874.5667724609375	-175.1374359130859	-1483.705810546875	1058.769165039062	-199.8924407958984	-1362.227905273438	728.1707153320312	-216.5938873291016	-1335.95947265625	804.3129272460938	-197.9209289550781	-1400.991333007812	806.5872192382812	-159.8114471435547	-1276.879272460938	1651.029418945312	-376.6329650878906	-1091.71142578125	1631.363525390625	-469.512451171875	-1143.337158203125	1637.314453125	-334.7957153320312	-1211.820190429688	1641.001953125	-528.3947143554688	-1319.836303710938	917.496337890625	-636.3402099609375	-1470.29541015625	919.556396484375	-282.072998046875	-1371.623901367188	948.0398559570312	-310.3802490234375	-1263.870971679688	938.9551391601562	-562.8430786132812	-1321.261108398438	473.6479797363281	-549.6223754882812	-1305.798706054688	638.5203857421875	-591.5281372070312	-1494.0888671875	28.6545581817627	-598.1764526367188	-1428.129638671875	239.5673370361328	-589.3314819335938	-1319.1171875	47.37571716308594	-471.1849365234375	-1398.940673828125	41.57255935668945	-462.08349609375	-1375.276123046875	38.49787902832031	-565.1827392578125	-1579.181884765625	22.0752067565918	-571.1331176757812	-1298.622436523438	499.0437927246094	-282.5339050292969	-1395.169799804688	776.5293579101562	-266.8878784179688	-1523.869506835938	78.53272247314453	-365.2193908691406	-1331.086669921875	354.6953430175781	-303.7984313964844	-1306.683471679688	74.05484008789062	-322.7036437988281	-1348.253173828125	69.22505950927734	-384.149169921875	-1408.920288085938	73.57700347900391	-299.1005554199219	-1552.948608398438	68.59463500976562	-437.1355895996094	-1151.086791992188	709.0811767578125	-616.5162963867188	
159	1.58	-1536.410766601562	998.8280639648438	-440.5308227539062	-1479.505004882812	1007.686401367188	-561.9293212890625	-1488.789672851562	1105.728637695312	-497.8049621582031	-1226.894897460938	1248.982666015625	-415.320556640625	-1469.212036132812	1230.086181640625	-497.8202514648438	-1368.030151367188	1488.836303710938	-468.1971130371094	-1221.057250976562	1360.080810546875	-420.4403686523438	-1486.737426757812	1388.623168945312	-409.2623291015625	-1379.939575195312	1437.427124023438	-566.1345825195312	-1258.023071289062	1441.826171875	-609.4683837890625	-1253.740600585938	1319.801513671875	-693.2379150390625	-1233.426391601562	1099.55126953125	-720.68994140625	-1333.858032226562	1090.553833007812	-706.9375610351562	-1152.720581054688	869.8130493164062	-624.1968383789062	-1162.2041015625	839.44287109375	-705.9236450195312	-1204.6298828125	1015.045471191406	-714.3549194335938	-1147.825073242188	782.4400634765625	-691.1520385742188	-1117.06689453125	797.8907470703125	-631.76904296875	-1367.650268554688	1453.94287109375	-301.7322387695312	-1418.242919921875	1398.005615234375	-243.9927673339844	-1483.899658203125	1115.879150390625	-205.4326934814453	-1535.854370117188	1105.511596679688	-240.78662109375	-1359.913940429688	890.106201171875	-231.7512664794922	-1418.923461914062	874.8855590820312	-173.7251434326172	-1481.038940429688	1059.432250976562	-197.9524078369141	-1361.737670898438	728.7804565429688	-215.8013153076172	-1334.6083984375	804.1266479492188	-196.2481994628906	-1399.69482421875	806.7747802734375	-158.3538818359375	-1267.966674804688	1649.008056640625	-374.2218322753906	-1083.023193359375	1628.257934570312	-467.2941589355469	-1134.460083007812	1634.5322265625	-332.5620727539062	-1203.112182617188	1638.591918945312	-526.0171508789062	-1316.647216796875	918.0993041992188	-635.956298828125	-1467.170776367188	918.994873046875	-281.7952880859375	-1368.770751953125	947.1044311523438	-310.1758422851562	-1259.88916015625	938.9198608398438	-562.2469482421875	-1321.3740234375	473.636474609375	-549.6890258789062	-1304.577880859375	638.6305541992188	-591.3140869140625	-1494.233154296875	28.64234733581543	-598.1607666015625	-1428.518798828125	239.7205047607422	-589.58642578125	-1319.302368164062	47.93596649169922	-471.0563049316406	-1399.284545898438	41.77851486206055	-462.073974609375	-1375.491821289062	38.81084823608398	-565.0459594726562	-1579.430053710938	21.94975662231445	-571.219482421875	-1287.300415039062	501.7196655273438	-279.1123962402344	-1390.272338867188	777.2802734375	-265.9986267089844	-1512.884155273438	81.77698516845703	-362.8023071289062	-1319.065063476562	357.3063049316406	-300.698974609375	-1295.465698242188	76.31583404541016	-321.0534057617188	-1337.216918945312	71.99646759033203	-382.4115600585938	-1397.673217773438	76.08390045166016	-297.0639343261719	-1542.206420898438	72.24481964111328	-434.6390991210938	-1141.951416015625	708.2251586914062	-611.8365478515625	
160	1.59	-1532.933715820312	998.52294921875	-440.2037658691406	-1475.663330078125	1008.188049316406	-561.3179321289062	-1484.958618164062	1106.277465820312	-496.8385620117188	-1221.373291015625	1246.831787109375	-412.5739135742188	-1463.543579101562	1229.98193359375	-496.3076782226562	-1359.905639648438	1487.727661132812	-465.9776916503906	-1214.401123046875	1357.7880859375	-417.5376586914062	-1479.81689453125	1388.805297851562	-407.4500427246094	-1371.9326171875	1436.429809570312	-564.0420532226562	-1249.828369140625	1439.700317382812	-606.700927734375	-1245.428100585938	1317.775756835938	-690.4658813476562	-1225.116821289062	1097.603393554688	-717.9771728515625	-1325.616455078125	1088.393188476562	-704.680908203125	-1143.602905273438	868.84521484375	-619.9750366210938	-1152.634887695312	838.004638671875	-701.5043334960938	-1195.9755859375	1013.294738769531	-711.1373901367188	-1138.057983398438	781.139892578125	-686.3634033203125	-1107.620727539062	796.9740600585938	-626.8363037109375	-1360.401123046875	1453.207397460938	-299.5218200683594	-1411.762939453125	1397.888671875	-241.8612365722656	-1480.685424804688	1116.5205078125	-203.5935668945312	-1532.881958007812	1106.760620117188	-238.7452392578125	-1357.975830078125	890.0848388671875	-229.9812316894531	-1417.204833984375	875.1249389648438	-172.2049407958984	-1478.39208984375	1060.037963867188	-195.8898010253906	-1361.263916015625	729.3074951171875	-214.9391479492188	-1333.35791015625	803.8453369140625	-194.4376678466797	-1398.498046875	806.8587646484375	-156.8143615722656	-1258.8876953125	1646.845336914062	-371.6415710449219	-1074.18359375	1624.999755859375	-464.8717651367188	-1125.434814453125	1631.582153320312	-330.1382751464844	-1194.2041015625	1636.0751953125	-523.4597778320312	-1313.386108398438	918.8397827148438	-635.637939453125	-1463.884643554688	918.3439331054688	-281.5292663574219	-1365.675415039062	946.0094604492188	-309.9391479492188	-1255.786743164062	938.8045654296875	-561.6295166015625	-1321.599609375	473.6712951660156	-549.9041748046875	-1303.390869140625	638.7730712890625	-591.236083984375	-1494.39013671875	28.61012077331543	-598.1593017578125	-1428.96630859375	239.8528900146484	-589.91357421875	-1319.48583984375	48.52473449707031	-470.9619140625	-1399.680541992188	42.01579666137695	-462.0950622558594	-1375.7392578125	39.10313415527344	-564.9425659179688	-1579.691650390625	21.84335327148438	-571.3199462890625	-1276.041259765625	504.5331420898438	-275.4903564453125	-1385.372680664062	777.9718017578125	-265.0734558105469	-1500.677001953125	84.4630126953125	-360.0247497558594	-1306.718505859375	359.9806518554688	-297.3088684082031	-1283.088623046875	78.66625213623047	-318.857177734375	-1324.94873046875	74.68525695800781	-380.1681213378906	-1385.281127929688	78.41758728027344	-294.5706787109375	-1530.172729492188	75.22350311279297	-431.8038940429688	-1132.70947265625	707.352294921875	-606.6287841796875	
161	1.6	-1529.210815429688	998.2053833007812	-439.8399963378906	-1471.598266601562	1008.753051757812	-560.6541748046875	-1480.861572265625	1106.69287109375	-495.7858581542969	-1215.671875	1244.5322265625	-409.6832885742188	-1457.566040039062	1229.73876953125	-494.6825561523438	-1351.629028320312	1486.464111328125	-463.5885314941406	-1207.577758789062	1355.354614257812	-414.4948120117188	-1472.687377929688	1388.778442382812	-405.4917602539062	-1363.7861328125	1435.28466796875	-561.7888793945312	-1241.523803710938	1437.446044921875	-603.780517578125	-1237.020751953125	1315.640869140625	-687.5455932617188	-1216.635986328125	1095.54638671875	-715.071533203125	-1317.203979492188	1086.095825195312	-702.3059692382812	-1134.248046875	867.9217529296875	-615.3607788085938	-1142.781494140625	836.4957885742188	-696.6796875	-1187.132080078125	1011.45751953125	-707.6639404296875	-1128.029052734375	779.807373046875	-681.1243896484375	-1097.995727539062	796.067626953125	-621.4436645507812	-1352.98876953125	1452.304077148438	-297.1414184570312	-1405.128540039062	1397.627197265625	-239.5878753662109	-1477.4287109375	1117.079345703125	-201.6075592041016	-1529.898071289062	1107.960693359375	-236.7112884521484	-1356.121826171875	889.960205078125	-228.0637512207031	-1415.539672851562	875.253662109375	-170.5706481933594	-1475.72509765625	1060.5654296875	-193.7112426757812	-1360.818603515625	729.7191772460938	-214.0592803955078	-1332.206420898438	803.4246826171875	-192.5054626464844	-1397.385620117188	806.807861328125	-155.1946411132812	-1249.655151367188	1644.539184570312	-368.9002380371094	-1065.19921875	1621.5869140625	-462.2489013671875	-1116.2734375	1628.4609375	-327.5211486816406	-1185.109741210938	1633.44287109375	-520.7350463867188	-1309.932739257812	919.6076049804688	-635.3329467773438	-1460.4423828125	917.58544921875	-281.2784118652344	-1362.337768554688	944.732666015625	-309.6655578613281	-1251.554321289062	938.5892333984375	-560.9974365234375	-1321.888793945312	473.7399597167969	-550.2739868164062	-1302.1328125	638.85498046875	-591.2636108398438	-1494.560424804688	28.55695152282715	-598.1726684570312	-1429.455444335938	239.9536285400391	-590.3148193359375	-1319.684814453125	49.11838912963867	-470.9046325683594	-1400.114624023438	42.27866744995117	-462.1372375488281	-1376.012329101562	39.36676406860352	-564.8765869140625	-1579.963989257812	21.74306678771973	-571.4336547851562	-1264.907104492188	507.4660339355469	-271.673095703125	-1380.461791992188	778.5790405273438	-264.1153869628906	-1487.245239257812	86.53372192382812	-356.8865661621094	-1294.118041992188	362.7067565917969	-293.6040344238281	-1269.581909179688	81.08206939697266	-315.9876403808594	-1311.455078125	77.24266052246094	-377.3078002929688	-1371.781127929688	80.55126953125	-291.5582580566406	-1516.808837890625	77.47135162353516	-428.6556396484375	-1123.342041015625	706.4795532226562	-600.8925170898438	
